{"glyphs":{":":{"x_min":0,"x_max":240,"ha":240,"o":"m 87 50 b 87 22 109 0 137 0 b 165 0 187 22 187 50 b 187 78 165 100 137 100 b 109 100 87 78 87 50 z m 87 470 b 87 442 109 420 137 420 b 165 420 187 442 187 470 b 187 498 165 520 137 520 b 109 520 87 498 87 470 z"},"$":{"x_min":0,"x_max":632,"ha":632,"o":"m 297 738 l 297 700 b 175 697 87 620 87 519 b 87 419 149 364 299 331 l 299 46 b 221 54 160 85 104 137 b 101 140 95 144 86 144 b 73 144 61 132 61 119 b 61 110 65 104 72 98 b 139 40 210 8 297 1 l 297 -78 b 297 -91 308 -102 321 -102 b 334 -102 345 -91 345 -78 l 345 0 b 470 4 559 79 559 185 b 559 283 495 340 343 372 l 343 652 b 396 646 444 626 493 587 b 500 581 505 580 511 580 b 525 580 537 591 537 605 b 537 615 532 621 523 628 b 469 668 417 692 345 698 l 345 738 b 345 751 334 762 321 762 b 308 762 297 751 297 738 z m 508 181 b 508 105 443 47 343 45 l 343 321 b 473 292 508 250 508 181 z m 138 523 b 138 595 202 653 299 655 l 299 382 b 170 413 138 455 138 523 z"},"?":{"x_min":0,"x_max":534,"ha":534,"o":"m 207 162 b 207 149 218 139 230 139 b 243 139 254 149 254 162 l 254 269 b 362 281 446 373 446 483 b 446 603 349 700 230 700 b 150 700 81 657 44 592 b 37 581 40 567 52 560 b 63 553 78 558 84 568 b 113 620 167 653 230 653 b 324 652 399 578 399 483 b 399 390 324 314 230 314 b 218 314 207 304 207 291 l 207 290 l 207 287 z m 207 23 b 207 10 218 0 230 0 b 243 0 254 10 254 23 l 254 45 b 254 58 243 69 230 69 b 218 69 207 58 207 45 z"},"<":{"x_min":0,"x_max":620,"ha":620,"o":"m 386 9 b 392 3 399 0 406 0 b 414 0 422 3 427 9 b 437 20 437 37 427 48 l 129 348 l 427 647 b 437 659 437 677 427 689 b 416 700 397 699 386 689 l 70 369 l 69 368 l 66 365 b 65 364 64 362 63 360 b 62 357 61 355 61 353 b 60 350 60 347 61 344 b 61 342 61 341 62 339 b 62 338 62 337 63 336 b 63 336 63 335 64 334 b 65 332 67 330 69 328 l 70 327 l 386 9 z"},"'":{"x_min":0,"x_max":230,"ha":230,"o":"m 70 461 b 68 446 75 442 84 442 b 93 442 97 447 101 460 l 158 661 b 160 670 163 679 163 685 b 163 697 156 702 147 702 l 128 702 b 112 702 103 694 100 676 z"},"=":{"x_min":0,"x_max":620,"ha":620,"o":"m 107 214 l 107 214 l 463 214 l 463 214 b 479 214 491 226 491 242 l 491 242 b 491 256 479 269 463 269 l 107 269 l 107 269 b 91 269 79 256 79 242 l 79 242 b 79 226 91 214 107 214 z m 107 430 l 107 430 l 463 430 l 463 430 b 479 430 491 442 491 457 l 491 457 b 491 473 479 485 463 485 l 107 485 l 107 485 b 91 485 79 473 79 457 l 79 457 b 79 442 91 430 107 430 z"},"a":{"x_min":0,"x_max":619,"ha":619,"o":"m 480 490 b 467 490 456 480 456 466 l 456 394 b 414 452 347 490 272 490 b 143 490 40 379 40 245 b 40 111 143 0 272 0 b 347 0 414 39 456 97 l 456 24 b 456 11 467 0 480 0 b 493 0 504 11 504 24 l 504 466 b 504 480 493 490 480 490 z m 272 48 b 172 48 88 135 88 245 b 88 355 172 443 272 443 b 373 443 456 355 456 245 b 456 135 373 48 272 48 z"},"L":{"x_min":0,"x_max":563,"ha":563,"o":"m 488 0 b 502 0 513 11 513 24 b 513 38 502 49 488 49 l 153 49 l 153 676 b 153 689 142 700 128 700 b 115 700 104 689 104 676 l 104 24 b 104 11 115 0 128 0 l 130 0 z"},"3":{"x_min":0,"x_max":610,"ha":610,"o":"m 483 664 b 485 667 486 671 486 675 b 486 689 475 700 461 700 l 134 700 b 120 700 109 689 109 675 b 109 661 120 650 134 650 l 402 650 l 228 471 b 218 461 218 445 228 435 b 228 435 229 435 229 435 b 234 429 241 425 249 425 b 297 425 345 407 381 370 b 418 334 436 286 436 238 b 436 190 418 142 381 105 b 344 69 296 51 248 51 b 200 51 153 69 116 105 b 106 115 90 115 81 105 b 71 95 71 79 81 70 l 81 70 b 127 23 188 0 248 0 b 248 0 248 0 248 0 b 309 0 370 24 416 70 b 463 116 486 177 486 238 b 486 299 463 360 417 406 b 383 440 341 461 297 470 l 478 656 b 480 658 482 661 483 664 z"},";":{"x_min":0,"x_max":240,"ha":240,"o":"m 68 469 b 68 441 90 419 118 419 b 146 419 168 441 168 469 b 168 497 146 519 118 519 b 90 519 68 497 68 469 z m 59 -90 b 59 -100 67 -105 74 -105 b 83 -105 108 -91 126 -73 b 144 -55 153 -25 153 31 l 153 56 b 153 75 139 89 120 89 b 101 89 87 75 87 56 l 87 35 b 87 15 99 4 114 0 b 117 -35 103 -57 67 -77 b 62 -80 59 -85 59 -90 z"},"J":{"x_min":0,"x_max":594,"ha":594,"o":"m 46 164 l 46 164 b 76 69 167 0 272 0 l 272 0 b 403 0 509 105 509 237 l 509 676 l 509 676 b 509 689 498 700 485 700 l 485 700 b 472 700 461 689 461 676 l 461 237 l 461 237 b 461 133 376 49 272 49 l 272 49 b 188 48 117 103 92 180 l 92 180 b 89 192 75 199 62 195 l 62 195 b 49 191 42 177 46 164 z"},"V":{"x_min":0,"x_max":750,"ha":750,"o":"m 346 2 b 346 2 346 1 347 1 b 349 0 353 0 356 0 b 359 0 362 1 365 2 l 366 2 b 374 5 379 13 380 22 l 651 662 b 656 674 650 689 638 694 b 626 700 611 694 607 682 l 356 86 l 106 682 b 101 694 86 700 74 694 b 62 689 56 674 61 662 l 332 17 l 333 16 b 333 15 333 14 334 14 b 336 8 340 4 346 2 z"},"\"":{"x_min":0,"x_max":410,"ha":410,"o":"m 250 461 b 248 446 255 442 264 442 b 273 442 277 447 281 460 l 338 661 b 340 670 343 679 343 685 b 343 697 336 702 327 702 l 308 702 b 292 702 283 694 280 676 z m 70 461 b 68 446 75 442 84 442 b 93 442 97 447 101 460 l 158 661 b 160 670 163 679 163 685 b 163 697 156 702 147 702 l 128 702 b 112 702 103 694 100 676 z"},"7":{"x_min":0,"x_max":587,"ha":587,"o":"m 181 2 b 185 0 187 0 191 0 b 200 0 209 6 213 15 l 484 659 b 487 663 488 667 488 672 b 488 675 487 677 486 680 b 484 686 479 692 473 695 b 468 697 463 697 458 696 l 88 696 b 75 696 64 685 64 672 b 64 659 75 648 88 648 l 426 648 l 167 34 b 163 22 169 7 181 2 z"},"S":{"x_min":0,"x_max":667,"ha":667,"o":"m 75 100 l 75 100 b 133 54 226 0 333 -1 l 333 -1 b 403 -1 466 20 513 54 l 513 54 b 560 88 592 138 592 194 l 592 194 b 592 250 561 296 515 326 l 515 326 b 469 357 407 377 337 390 l 335 390 l 335 390 b 272 402 220 419 185 443 l 185 443 b 150 467 134 493 133 528 l 133 528 b 133 564 153 598 188 624 l 188 624 b 223 649 274 666 331 666 l 331 666 b 408 666 468 628 523 592 l 523 592 b 533 585 547 588 553 598 l 553 598 b 560 609 557 622 547 629 l 547 629 b 492 665 423 710 331 710 l 331 710 b 265 710 206 691 162 659 l 162 659 b 118 627 89 581 89 528 l 89 528 b 89 476 118 434 161 406 l 161 406 b 204 377 261 359 326 347 l 328 347 l 328 347 b 396 334 452 315 490 290 l 490 290 b 528 264 547 234 547 194 l 547 194 b 547 155 526 118 487 90 l 487 90 b 449 62 394 44 333 44 l 333 44 b 242 43 155 92 103 134 l 103 134 b 94 142 80 141 72 131 l 72 131 b 65 122 66 108 75 100 z"},"}":{"x_min":0,"x_max":480,"ha":480,"o":"m 74 713 b 63 715 53 709 53 697 b 53 689 59 683 65 681 b 210 643 226 605 226 506 l 226 431 b 226 342 263 309 330 287 b 267 268 226 232 226 143 l 226 68 b 226 -31 210 -69 65 -107 b 59 -109 53 -115 53 -123 b 53 -135 63 -141 74 -139 b 243 -105 275 -41 275 62 l 275 141 b 275 219 298 268 401 268 b 417 268 425 276 425 287 b 425 298 417 306 401 306 b 298 306 275 355 275 433 l 275 512 b 275 615 243 679 74 713 z"},"Z":{"x_min":0,"x_max":667,"ha":667,"o":"m 83 5 b 85 3 87 2 89 1 b 91 1 94 0 96 0 l 98 0 l 571 0 b 584 0 595 11 595 24 b 595 39 584 49 571 49 l 145 49 l 590 657 b 597 666 597 679 590 687 b 588 689 585 691 583 692 b 577 696 570 698 563 696 l 98 696 b 85 696 74 685 74 672 b 74 659 85 648 98 648 l 522 648 l 81 42 b 79 40 77 37 75 33 b 71 23 74 11 83 5 z"},"x":{"x_min":0,"x_max":570,"ha":570,"o":"m 79 5 b 84 2 89 0 93 0 b 100 0 108 3 112 10 l 254 203 l 395 10 b 399 3 407 0 415 0 b 419 0 424 2 427 5 b 439 13 441 27 434 38 l 283 243 l 434 449 b 441 461 439 475 427 483 b 418 490 403 488 395 477 l 254 284 l 112 477 b 105 488 89 490 79 483 b 69 475 67 461 74 449 l 224 243 l 74 38 b 67 27 69 13 79 5 z"},")":{"x_min":0,"x_max":430,"ha":430,"o":"m 261 28 b 295 101 309 198 309 303 l 309 303 b 309 408 295 504 261 578 l 261 578 b 228 651 169 703 87 703 l 87 703 b 72 703 60 690 60 675 l 60 675 b 60 660 72 647 87 647 l 87 647 b 144 646 181 616 211 554 l 211 554 b 239 493 253 403 253 303 l 253 303 b 253 203 239 113 211 52 l 211 52 b 181 -10 144 -41 87 -41 l 87 -41 b 72 -41 60 -54 60 -69 l 60 -69 b 60 -85 72 -97 87 -97 l 87 -97 b 88 -97 88 -97 89 -97 l 89 -97 b 170 -97 229 -45 261 28 z"},"&":{"x_min":0,"x_max":696,"ha":696,"o":"m 49 229 b 49 103 152 0 278 0 b 404 0 507 103 507 229 b 507 245 505 261 502 276 b 512 280 521 285 531 292 b 552 307 567 334 565 367 b 565 378 564 390 562 404 b 558 416 546 425 532 422 b 519 419 510 406 514 393 b 516 383 516 374 516 367 b 516 346 510 338 502 330 b 495 325 485 321 474 319 l 467 319 l 464 319 l 458 319 b 447 321 434 321 423 321 b 351 321 305 303 277 275 b 248 248 242 214 242 190 b 242 170 246 155 247 154 b 250 143 259 137 271 137 b 273 137 275 137 278 138 b 290 142 297 155 294 169 b 293 173 291 180 291 190 b 291 206 295 225 311 241 b 327 257 359 272 423 272 b 432 272 442 272 453 270 b 456 257 458 243 458 229 b 458 130 377 49 278 49 b 179 49 98 130 98 229 b 98 299 137 358 195 389 b 198 390 200 391 203 393 b 207 396 211 400 212 405 b 217 415 213 427 204 434 b 174 455 153 491 153 531 b 153 598 207 651 273 651 b 339 651 393 598 393 531 b 393 518 404 507 417 507 b 431 507 442 518 442 531 b 442 625 366 700 273 700 b 180 700 104 625 104 531 b 104 488 120 448 148 418 b 88 376 49 306 49 229 z"},"_":{"x_min":0,"x_max":600,"ha":600,"o":"m -2 -160 l 602 -160 b 614 -160 624 -150 624 -138 b 624 -126 614 -116 602 -116 l -2 -116 b -14 -116 -24 -126 -24 -138 b -24 -150 -14 -160 -2 -160 z"},"v":{"x_min":0,"x_max":582,"ha":582,"o":"m 255 2 b 256 1 256 1 257 1 b 260 0 262 0 265 0 b 270 0 277 2 281 7 b 284 11 286 15 287 19 l 470 453 b 475 465 470 479 458 484 b 446 489 431 483 427 471 l 264 85 l 101 471 b 97 483 82 489 70 484 b 59 479 53 465 58 453 l 242 15 b 244 10 247 7 250 4 b 252 3 253 2 255 2 z"},"O":{"x_min":0,"x_max":850,"ha":850,"o":"m 73 355 l 73 355 b 74 159 222 0 411 0 l 411 0 b 598 0 745 159 746 355 l 746 355 b 745 551 598 710 411 710 l 411 710 b 222 710 74 551 73 355 z m 122 355 l 122 355 b 122 528 252 660 411 660 l 411 660 b 565 660 695 528 696 355 l 696 355 b 695 184 565 49 411 49 l 411 49 b 252 49 122 184 122 355 z"},"(":{"x_min":0,"x_max":430,"ha":430,"o":"m 119 28 l 119 28 b 151 -45 210 -97 291 -97 l 291 -97 b 292 -97 292 -97 293 -97 l 293 -97 b 308 -97 320 -85 320 -69 l 320 -69 b 320 -54 308 -41 293 -41 l 293 -41 b 236 -41 199 -10 169 52 l 169 52 b 141 113 127 203 127 303 l 127 303 b 127 403 141 493 169 554 l 169 554 b 199 616 236 646 293 647 l 293 647 b 308 647 320 660 320 675 l 320 675 b 320 690 308 703 293 703 l 293 703 b 211 703 152 651 119 578 l 119 578 b 85 504 71 408 71 303 l 71 303 b 71 198 85 101 119 28 z"},"C":{"x_min":0,"x_max":771,"ha":771,"o":"m 73 353 l 73 353 b 73 158 236 0 437 0 l 437 0 b 523 0 602 29 663 76 l 663 76 b 674 84 676 102 666 111 l 666 111 b 659 123 643 125 631 117 l 631 117 b 579 73 511 49 437 49 l 437 49 b 262 49 122 186 122 353 l 122 353 b 122 524 262 661 437 661 l 437 661 b 511 661 579 635 633 593 l 633 593 b 643 585 659 586 667 598 l 667 598 b 676 607 674 624 663 633 l 663 633 b 602 680 523 710 437 710 l 437 710 b 236 709 73 552 73 353 z"},"W":{"x_min":0,"x_max":1102,"ha":1102,"o":"m 78 694 b 66 689 60 674 66 662 l 336 20 b 337 15 339 11 342 8 l 343 7 l 345 5 b 349 2 354 0 360 0 b 365 0 370 1 374 4 b 374 4 375 5 376 5 b 378 7 380 9 381 12 b 382 13 383 15 383 17 l 562 440 l 740 17 b 741 16 741 15 741 14 b 742 12 744 9 745 8 b 746 6 748 5 749 4 b 753 1 757 0 761 0 l 764 0 l 766 0 b 773 1 782 7 786 16 l 1058 662 b 1064 674 1058 689 1046 694 b 1032 700 1019 694 1013 682 l 763 87 l 586 508 b 581 517 572 523 561 523 b 552 523 543 517 538 508 l 360 87 l 110 682 b 105 694 90 700 78 694 z"},"A":{"x_min":0,"x_max":646,"ha":646,"o":"m 549 16 b 553 6 563 0 572 0 b 575 0 577 1 581 1 b 593 6 599 21 594 33 l 351 682 b 348 691 338 697 327 697 b 317 697 307 691 303 682 l 60 33 b 55 21 62 6 74 1 b 77 1 81 0 83 0 b 93 0 102 6 106 16 l 168 181 l 487 181 z m 328 606 l 469 230 l 186 230 z"},"f":{"x_min":0,"x_max":362,"ha":362,"o":"m 285 699 b 246 699 210 690 186 664 b 163 637 155 600 154 550 l 154 498 l 89 498 b 76 498 65 487 65 474 b 65 460 76 449 89 449 l 154 449 l 154 23 b 154 10 165 -1 179 -1 b 192 -1 203 10 203 23 l 203 449 l 272 449 b 286 449 297 460 297 474 b 297 487 286 498 272 498 l 203 498 l 203 550 b 203 595 212 619 223 631 b 233 643 251 650 285 650 b 298 650 309 661 309 674 b 309 688 298 699 285 699 z"},"Q":{"x_min":0,"x_max":844,"ha":844,"o":"m 804 -49 b 795 -38 780 -37 769 -45 b 722 -81 681 -95 642 -95 b 593 -95 543 -74 492 -43 b 473 -32 451 -25 431 -21 l 532 26 b 532 26 532 26 532 26 b 653 81 738 207 738 354 b 738 549 589 709 402 710 b 215 709 66 549 66 354 b 66 175 192 24 358 1 l 265 -41 b 253 -47 248 -62 254 -74 b 255 -78 258 -81 261 -85 b 262 -85 262 -85 262 -85 b 262 -85 262 -85 262 -85 b 271 -91 280 -92 290 -87 b 290 -87 290 -87 291 -87 b 298 -81 338 -65 384 -65 b 410 -65 438 -70 468 -87 b 521 -118 578 -144 642 -144 b 643 -144 643 -144 643 -144 b 693 -144 746 -127 801 -85 b 811 -76 812 -60 804 -49 z m 116 354 b 116 525 246 659 402 659 b 558 659 688 525 688 354 b 688 184 558 48 402 48 b 246 48 116 184 116 354 z"},"w":{"x_min":0,"x_max":861,"ha":861,"o":"m 261 2 b 264 1 267 0 270 0 b 278 0 288 6 291 15 b 291 16 292 17 292 17 l 405 287 l 519 16 l 520 15 b 522 7 531 1 539 0 l 542 0 l 544 0 b 548 0 552 2 556 5 b 560 8 563 12 565 17 l 748 453 b 753 465 747 479 735 484 b 724 489 709 483 704 471 l 542 85 l 429 354 b 425 363 415 369 405 369 b 396 369 386 363 382 354 l 269 85 l 106 471 b 102 483 87 489 75 484 b 64 479 58 465 63 453 l 247 15 b 249 10 252 6 257 4 b 258 3 259 2 261 2 z"},"-":{"x_min":0,"x_max":408,"ha":408,"o":"m 85 328 l 85 328 l 298 328 l 298 328 b 308 328 317 336 317 348 l 317 348 b 317 359 308 366 298 366 l 85 366 l 85 366 b 74 366 66 359 66 348 l 66 348 b 66 336 74 328 85 328 z"},"E":{"x_min":0,"x_max":593,"ha":593,"o":"m 104 24 b 104 11 114 1 126 0 l 128 0 l 131 0 l 488 0 b 502 0 512 11 512 24 b 512 38 502 49 488 49 l 153 49 l 153 325 l 446 325 b 459 325 470 336 470 349 b 470 363 459 374 446 374 l 153 374 l 153 651 l 488 651 b 502 651 512 662 512 676 b 512 689 502 700 488 700 l 130 700 l 128 700 b 115 700 104 689 104 676 l 104 24 z"},"s":{"x_min":0,"x_max":492,"ha":492,"o":"m 62 70 l 62 70 b 102 38 164 1 243 0 l 243 0 b 291 0 331 14 365 39 l 365 39 b 398 64 421 97 421 138 l 421 138 b 421 179 398 217 366 238 l 366 238 b 332 257 294 271 247 278 l 245 278 l 245 278 b 200 285 167 297 145 312 l 145 312 b 126 327 117 341 117 361 l 117 361 b 117 381 128 401 148 417 l 148 417 b 169 434 201 445 241 445 l 241 445 b 289 445 325 420 361 396 l 361 396 b 372 389 387 392 394 403 l 394 403 b 401 414 398 429 387 437 l 387 437 b 349 461 304 490 241 490 l 241 490 b 191 490 150 477 121 457 l 121 457 b 90 434 68 400 68 361 l 68 361 b 68 323 90 291 121 273 l 121 273 b 149 253 188 243 232 235 l 234 234 l 234 234 b 282 226 317 214 338 198 l 338 198 b 363 177 372 161 373 138 l 373 138 b 373 116 360 94 336 78 l 336 78 b 314 60 281 48 243 48 l 243 48 b 181 48 127 80 93 105 l 93 105 b 82 114 67 112 59 102 l 59 102 b 51 92 52 79 62 70 z"},">":{"x_min":0,"x_max":620,"ha":620,"o":"m 99 9 b 105 3 112 0 120 0 b 127 0 135 3 140 9 l 456 327 l 457 328 b 458 329 459 329 459 330 b 463 335 465 342 465 348 b 465 355 462 363 457 368 l 456 369 l 140 689 b 129 699 110 700 99 689 b 89 677 89 659 99 647 l 397 348 l 99 48 b 89 37 89 20 99 9 z"},"l":{"x_min":0,"x_max":249,"ha":249,"o":"m 100 24 l 100 24 b 100 11 111 0 124 0 l 124 0 b 138 0 149 11 149 24 l 149 676 l 149 676 b 149 689 138 700 124 700 l 124 700 b 111 700 100 689 100 676 l 100 24 z"},"8":{"x_min":0,"x_max":630,"ha":630,"o":"m 137 555 b 137 506 160 464 195 437 b 113 403 55 321 55 227 b 55 101 157 0 282 0 b 408 0 509 101 509 227 b 509 321 451 403 368 437 b 404 464 428 506 428 555 b 428 635 362 700 282 700 b 201 700 137 635 137 555 z m 103 227 b 103 325 183 406 282 406 b 382 406 461 325 461 227 b 461 128 382 48 282 48 b 183 48 103 128 103 227 z m 185 555 b 185 609 228 652 282 652 b 336 652 380 609 380 555 b 380 501 336 457 282 456 b 228 457 185 501 185 555 z"},"\\":{"x_min":0,"x_max":448,"ha":448,"o":"m 372 3 b 384 9 390 23 385 36 l 385 36 l 112 684 b 106 696 93 702 80 697 l 80 697 b 67 692 61 678 67 665 l 67 665 l 340 17 b 344 7 353 2 362 2 l 362 2 b 366 2 369 2 372 3 l 372 3 z"},"e":{"x_min":0,"x_max":609,"ha":609,"o":"m 296 0 b 379 0 452 44 494 111 b 501 123 497 137 486 145 b 476 151 461 149 454 137 b 421 82 361 48 296 48 b 195 48 111 129 106 236 l 508 236 b 521 236 532 245 532 258 l 532 261 l 532 262 b 522 390 422 490 296 490 b 164 490 58 380 58 244 b 58 110 164 0 296 0 z m 296 442 b 386 442 464 375 480 283 l 109 283 b 127 376 204 442 296 442 z"},"b":{"x_min":0,"x_max":660,"ha":660,"o":"m 93 24 b 93 11 104 0 117 0 b 131 0 142 11 142 24 l 142 95 b 185 37 253 0 330 0 b 462 0 567 110 567 244 b 567 380 462 490 330 490 b 253 490 185 452 142 394 l 142 676 b 142 689 131 700 117 700 b 104 700 93 689 93 676 l 93 254 l 93 244 l 93 234 z m 142 252 b 146 357 229 441 330 441 b 434 441 518 353 518 244 b 518 136 434 49 330 49 b 227 49 142 136 142 244 z"},"m":{"x_min":0,"x_max":951,"ha":951,"o":"m 794 23 b 794 11 804 0 817 0 b 831 0 841 11 841 23 l 841 290 b 841 400 752 489 642 489 b 567 489 501 447 466 385 b 432 447 367 489 291 489 b 230 489 176 462 140 419 l 140 466 b 140 479 130 489 116 489 b 104 489 93 479 93 466 l 93 298 l 93 290 l 93 23 l 93 18 b 96 9 104 1 113 0 l 116 0 l 119 0 b 121 0 122 0 123 1 b 125 1 128 3 129 4 b 136 8 140 15 140 23 l 140 290 b 140 373 207 442 291 442 b 375 442 442 373 442 290 l 442 23 l 442 21 l 442 18 b 443 17 443 16 443 15 b 444 14 444 13 444 13 b 445 12 445 12 445 11 b 446 11 446 10 447 9 l 450 6 b 451 5 452 4 453 4 b 455 3 457 1 459 1 b 459 1 460 0 461 0 l 463 0 l 466 0 b 470 0 474 1 478 3 b 483 6 488 10 490 16 l 490 18 b 490 18 491 19 491 20 l 491 23 l 491 290 b 491 373 559 442 642 442 b 726 442 792 373 794 290 l 794 23 z"},"#":{"x_min":0,"x_max":700,"ha":700,"o":"m 142 25 b 140 11 147 -4 164 -4 b 177 -4 187 5 189 18 l 218 187 l 425 187 l 397 25 b 395 11 402 -4 419 -4 b 432 -4 442 5 444 18 l 473 187 l 590 187 b 603 187 614 198 614 211 b 614 224 603 234 590 234 l 481 234 l 522 470 l 630 470 b 643 470 654 481 654 494 b 654 507 643 517 630 517 l 530 517 l 557 675 b 559 689 552 704 535 704 b 522 704 512 695 510 682 l 482 517 l 275 517 l 302 675 b 304 689 297 704 280 704 b 267 704 257 695 255 682 l 227 517 l 109 517 b 96 517 85 506 85 493 b 85 480 96 470 109 470 l 219 470 l 178 234 l 69 234 b 56 234 45 223 45 210 b 45 197 56 187 69 187 l 170 187 z m 226 234 l 267 470 l 474 470 l 433 234 z"},",":{"x_min":0,"x_max":230,"ha":230,"o":"m 54 -90 b 54 -100 62 -105 69 -105 b 78 -105 103 -91 121 -73 b 139 -55 148 -25 148 31 l 148 56 b 148 75 134 89 115 89 b 96 89 82 75 82 56 l 82 35 b 82 15 94 4 109 0 b 112 -35 98 -57 62 -77 b 57 -80 54 -85 54 -90 z"},"n":{"x_min":0,"x_max":613,"ha":613,"o":"m 443 24 b 443 10 454 0 467 0 b 480 0 491 10 491 24 l 491 290 b 491 399 402 489 292 489 b 231 489 176 461 140 418 l 140 465 b 140 478 130 489 117 489 b 103 489 93 478 93 465 l 93 298 l 93 290 l 93 24 l 93 18 b 93 18 94 17 94 16 b 94 15 94 14 95 13 b 98 7 104 2 111 0 l 117 0 b 124 0 131 3 135 9 b 138 12 139 16 140 20 l 140 24 l 140 290 b 142 373 209 441 292 441 b 376 441 443 373 443 290 l 443 24 z"},"h":{"x_min":0,"x_max":613,"ha":613,"o":"m 453 24 b 453 11 464 0 477 0 b 491 0 502 11 502 24 l 502 297 b 502 410 410 490 297 490 b 235 490 179 462 142 418 l 142 676 b 142 689 131 700 117 700 b 104 700 93 689 93 676 l 93 305 l 93 297 l 93 24 b 93 21 93 19 94 16 b 95 13 96 11 98 8 b 103 3 110 0 117 0 l 120 0 l 122 0 b 123 0 124 1 124 1 b 131 3 136 7 139 13 b 140 14 140 15 141 17 b 141 18 142 19 142 21 l 142 24 l 142 297 b 142 383 212 441 297 441 b 383 441 453 383 453 297 l 453 24 z"},"z":{"x_min":0,"x_max":554,"ha":554,"o":"m 358 438 l 69 42 b 64 38 61 32 61 25 l 61 24 b 61 21 61 18 62 15 b 62 15 63 15 63 14 b 66 6 75 0 85 0 l 405 0 b 418 0 429 10 429 24 b 429 38 418 48 405 48 l 131 48 l 419 443 b 424 446 427 451 428 456 b 431 464 429 472 423 478 l 422 479 l 419 482 b 414 485 408 487 402 486 l 85 486 b 72 486 61 476 61 462 b 61 449 72 438 85 438 z"},"B":{"x_min":0,"x_max":594,"ha":594,"o":"m 104 24 b 104 11 114 0 127 0 l 128 0 l 131 0 l 328 0 b 438 0 528 89 528 200 b 528 288 470 362 391 389 b 431 421 458 470 458 525 b 458 622 380 700 284 700 l 131 700 l 128 700 b 115 700 104 689 104 676 z m 153 49 l 153 351 l 328 351 b 411 351 478 283 479 200 b 478 116 411 49 328 49 z m 153 401 l 153 651 l 284 651 b 353 651 409 595 409 525 b 409 457 353 401 284 401 z"},"K":{"x_min":0,"x_max":715,"ha":715,"o":"m 104 24 b 104 11 115 0 128 0 b 142 0 153 11 153 24 l 153 199 l 307 353 l 578 9 b 583 2 589 0 596 0 b 602 0 607 1 612 5 b 622 15 624 29 616 40 l 342 388 l 610 656 b 620 666 620 682 610 691 b 602 700 586 700 576 691 l 153 268 l 153 673 b 153 687 142 698 128 698 b 115 698 104 687 104 673 l 104 24 z"},"R":{"x_min":0,"x_max":625,"ha":625,"o":"m 471 43 b 482 21 503 11 516 11 l 518 11 b 524 11 529 12 530 12 b 543 17 549 31 546 44 b 542 55 530 61 519 60 b 518 61 513 65 509 77 b 504 92 500 117 500 158 b 500 237 452 288 406 314 b 402 316 399 317 396 319 b 464 351 511 420 511 500 b 511 611 422 700 312 700 l 117 700 l 114 700 l 112 700 b 100 699 90 688 90 676 l 90 24 b 90 11 101 0 114 0 b 128 0 139 11 139 24 l 139 301 l 309 301 b 310 301 311 300 314 299 b 327 297 364 286 395 264 b 426 241 452 209 452 158 b 452 99 459 66 471 43 z m 463 500 b 463 418 397 351 316 349 l 307 349 l 139 349 l 139 651 l 312 651 b 395 651 463 584 463 500 z"},"T":{"x_min":0,"x_max":648,"ha":648,"o":"m 285 24 b 285 11 296 0 309 0 b 322 0 333 11 333 24 l 333 651 l 544 651 b 557 651 568 662 568 676 b 568 689 557 700 544 700 l 74 700 b 61 700 50 689 50 676 b 50 662 61 651 74 651 l 285 651 l 285 24 z"},"P":{"x_min":0,"x_max":583,"ha":583,"o":"m 104 24 b 104 11 115 0 128 0 b 142 0 153 11 153 24 l 153 299 l 326 301 b 436 301 525 390 525 500 b 525 610 436 700 326 700 l 131 700 l 128 700 b 115 700 104 689 104 676 z m 153 348 l 153 651 l 326 651 b 409 651 477 583 477 500 b 477 417 409 349 326 348 z"},"|":{"x_min":0,"x_max":286,"ha":286,"o":"m 121 -110 b 121 -122 131 -132 143 -132 b 155 -132 165 -122 165 -110 l 165 780 b 165 792 155 802 143 802 b 131 802 121 792 121 780 z"},"t":{"x_min":0,"x_max":400,"ha":400,"o":"m 240 490 l 177 490 l 177 672 b 177 684 164 696 151 696 b 139 696 127 684 127 672 l 127 490 l 66 490 b 42 490 42 478 42 466 b 42 454 42 442 66 442 l 127 442 l 127 85 b 127 36 164 0 213 0 b 225 0 238 12 238 24 b 238 36 225 49 213 49 b 201 49 177 61 177 85 l 177 442 l 240 442 b 252 442 264 454 264 466 b 264 478 252 490 240 490 z"},"M":{"x_min":0,"x_max":844,"ha":844,"o":"m 644 24 b 644 11 654 0 668 0 b 681 0 692 11 692 24 l 692 672 b 692 676 690 681 688 685 b 686 688 684 690 681 693 b 670 700 654 698 647 687 l 399 342 l 150 687 b 142 698 127 700 116 693 b 115 692 114 692 114 691 b 108 687 104 680 104 672 l 104 24 b 104 11 115 0 129 0 b 142 0 153 11 153 24 l 153 599 l 377 289 b 382 281 389 278 398 278 l 400 278 b 407 278 415 281 420 289 l 644 600 l 644 24 z"},"g":{"x_min":0,"x_max":660,"ha":660,"o":"m 521 466 b 521 479 510 490 498 490 b 484 490 473 479 473 466 l 473 466 l 473 394 b 432 452 365 490 290 490 b 162 490 60 379 60 247 b 60 112 162 3 290 3 b 365 3 432 40 473 99 l 473 39 b 473 -62 392 -143 290 -143 b 260 -143 235 -137 210 -125 b 198 -118 184 -123 178 -136 b 172 -147 178 -161 188 -168 b 220 -182 254 -191 290 -191 b 418 -191 521 -88 521 39 l 521 466 z m 290 50 b 190 50 108 137 108 247 b 108 356 190 442 290 442 b 391 442 473 356 473 247 b 473 137 391 50 290 50 z"},"j":{"x_min":0,"x_max":249,"ha":249,"o":"m 57 603 l 57 603 b 57 590 70 578 82 578 l 82 578 b 95 578 106 590 106 603 l 106 626 l 106 626 b 106 639 95 650 82 650 l 82 650 b 70 650 57 639 57 626 z m -5 -168 l -5 -168 b -5 -181 5 -191 19 -191 l 19 -191 b 67 -191 104 -154 104 -106 l 104 465 l 104 465 b 104 479 93 490 80 490 l 80 490 b 67 490 55 479 55 465 l 55 -106 l 55 -106 b 55 -126 38 -143 19 -143 l 19 -143 b 5 -143 -5 -154 -5 -168 z"},"i":{"x_min":0,"x_max":281,"ha":281,"o":"m 94 24 l 94 24 b 94 11 105 0 118 0 l 118 0 b 132 0 143 11 143 24 l 143 466 l 143 466 b 143 480 132 490 118 490 l 118 490 b 105 490 94 480 94 466 z m 94 603 l 94 603 b 94 589 105 577 118 577 l 118 577 b 132 577 143 589 143 603 l 143 626 l 143 626 b 143 639 132 650 118 650 l 118 650 b 105 650 94 639 94 626 z"},"y":{"x_min":0,"x_max":588,"ha":588,"o":"m 52 201 b 52 91 141 2 250 1 b 311 1 365 29 402 71 l 402 39 b 401 -62 319 -143 217 -143 b 189 -143 161 -136 137 -124 b 125 -121 112 -124 106 -136 b 100 -147 105 -161 116 -168 b 147 -182 181 -191 217 -191 b 346 -191 450 -89 450 39 l 450 192 l 450 201 l 450 467 b 450 470 449 474 447 477 b 446 480 443 483 441 485 b 437 487 433 489 429 490 l 426 490 l 423 490 b 422 490 421 489 420 489 l 418 489 b 415 488 411 486 409 483 b 408 483 408 482 407 482 b 407 481 406 480 406 479 b 403 476 402 471 402 467 l 402 201 b 401 117 334 50 250 50 b 167 50 100 117 100 201 l 100 467 b 100 480 89 490 75 490 b 63 490 52 480 52 467 l 52 201 z"},"@":{"x_min":0,"x_max":980,"ha":980,"o":"m 53 351 b 53 156 209 0 404 0 b 434 0 463 4 490 11 b 503 13 512 27 507 40 b 506 54 492 60 479 57 b 454 50 430 49 404 49 b 238 49 102 185 102 351 b 102 516 238 652 404 652 b 569 652 705 516 705 351 b 705 301 694 254 672 214 b 668 204 644 169 614 162 l 606 162 b 596 162 591 165 588 169 b 585 175 581 185 582 191 l 581 191 l 581 338 l 581 343 l 581 351 b 581 453 503 538 404 538 b 305 538 225 453 225 351 b 225 248 305 162 404 162 b 456 162 500 185 533 222 l 533 188 b 533 171 539 155 549 140 b 560 125 579 113 606 113 b 612 113 619 113 626 115 b 685 132 714 188 717 191 b 741 238 754 292 754 351 b 754 545 598 701 404 701 b 209 701 53 545 53 351 z m 277 351 b 277 427 334 489 404 489 b 473 489 532 427 532 351 b 532 274 473 214 404 214 b 334 214 277 274 277 351 z"},".":{"x_min":0,"x_max":230,"ha":230,"o":"m 82 50 b 82 22 104 0 132 0 b 160 0 182 22 182 50 b 182 78 160 100 132 100 b 104 100 82 78 82 50 z"},"p":{"x_min":0,"x_max":660,"ha":660,"o":"m 93 -181 b 93 -194 104 -205 117 -205 b 131 -205 142 -194 142 -181 l 142 99 b 184 41 252 3 328 3 b 460 3 565 114 565 247 b 565 381 460 490 328 490 b 252 490 184 452 142 395 l 142 466 b 142 479 131 490 117 490 b 104 490 93 479 93 466 l 93 257 l 93 247 l 93 237 z m 142 255 b 146 359 229 441 328 441 b 432 441 516 355 516 247 b 516 139 432 52 328 51 b 227 52 142 139 142 247 z"},"X":{"x_min":0,"x_max":722,"ha":722,"o":"m 86 5 b 91 2 96 0 101 0 b 108 0 116 4 120 11 l 337 308 l 554 11 b 559 4 566 0 574 0 b 579 0 583 2 588 5 b 599 13 602 28 593 39 l 367 348 l 593 657 b 602 668 599 684 588 691 b 577 700 563 698 554 687 l 337 389 l 120 687 b 113 698 97 700 86 691 b 75 684 73 668 82 657 l 307 348 l 82 39 b 73 28 75 13 86 5 z"},"*":{"x_min":0,"x_max":430,"ha":430,"o":"m 195 424 b 194 412 203 402 215 402 b 227 402 236 412 235 424 l 227 533 l 318 471 b 324 467 328 465 334 465 b 345 465 354 475 354 486 b 354 497 347 502 340 505 l 237 554 l 340 603 b 347 606 354 611 354 622 b 354 633 345 643 334 643 b 328 643 324 641 318 637 l 227 575 l 235 684 b 236 696 227 706 215 706 b 203 706 194 696 195 684 l 203 575 l 112 637 b 106 641 103 643 96 643 b 85 642 76 633 76 622 b 76 613 82 607 90 603 l 193 554 l 90 505 b 83 502 76 495 76 486 b 76 475 85 465 96 465 b 102 465 106 467 112 471 l 203 533 z"},"Y":{"x_min":0,"x_max":604,"ha":604,"o":"m 296 24 b 296 11 307 0 320 0 b 334 0 344 11 344 24 l 344 338 l 578 657 b 586 668 584 684 573 691 b 562 700 546 698 539 687 l 319 386 l 100 687 b 93 698 77 700 66 691 b 56 684 54 668 61 657 l 296 336 l 296 24 z"},"c":{"x_min":0,"x_max":571,"ha":571,"o":"m 310 0 l 310 0 b 310 0 310 0 310 0 l 310 0 b 368 0 423 20 464 52 l 464 52 b 476 61 478 76 469 87 l 469 87 b 461 96 447 99 436 91 l 436 91 l 436 91 b 401 64 357 48 310 48 l 310 48 b 196 48 106 136 106 246 l 106 246 b 106 354 196 443 310 443 l 310 443 b 357 443 401 427 436 399 l 436 399 b 447 391 461 394 469 403 l 469 403 b 478 414 476 429 466 436 l 466 436 b 423 470 368 490 310 490 l 310 490 b 170 490 58 382 58 246 l 58 246 b 58 108 170 0 310 0 z"},"!":{"x_min":0,"x_max":252,"ha":252,"o":"m 93 174 l 93 174 b 93 160 104 149 117 149 l 117 149 b 131 149 142 160 142 174 l 142 676 l 142 676 b 142 689 131 700 117 700 l 117 700 b 104 700 93 689 93 676 z m 93 24 l 93 24 b 93 11 104 0 117 0 l 117 0 b 131 0 142 11 142 24 l 142 48 l 142 48 b 142 61 131 72 117 72 l 117 72 b 104 72 93 61 93 48 z"},"/":{"x_min":0,"x_max":422,"ha":422,"o":"m 91 1 l 91 1 b 94 0 97 0 101 0 l 101 0 b 110 0 119 5 123 15 l 396 663 l 396 663 b 402 676 396 690 383 695 l 383 695 b 370 700 357 694 351 682 l 78 34 l 78 34 b 73 21 79 7 91 1 z"},"[":{"x_min":0,"x_max":430,"ha":430,"o":"m 98 -104 b 98 -118 110 -130 124 -130 l 356 -130 b 366 -130 375 -121 375 -111 b 375 -101 366 -92 356 -92 l 144 -92 l 144 662 l 356 662 b 366 662 375 671 375 681 b 375 691 366 700 356 700 l 124 700 b 110 700 98 688 98 674 z"},"6":{"x_min":0,"x_max":642,"ha":642,"o":"m 64 269 b 64 253 64 238 66 223 b 70 99 172 0 297 0 b 426 0 529 103 529 231 b 529 358 426 462 297 462 b 228 462 166 431 124 383 b 134 433 150 482 174 523 b 218 596 280 646 378 650 b 391 651 402 662 402 676 b 401 689 390 700 377 699 b 261 695 180 632 132 547 b 84 464 65 362 64 269 z m 115 231 b 115 331 197 413 297 413 b 399 413 481 331 481 231 b 481 131 399 49 297 49 b 205 49 128 118 116 207 b 117 209 117 211 117 214 b 116 218 115 222 115 227 z"},"r":{"x_min":0,"x_max":439,"ha":439,"o":"m 93 24 b 93 10 104 0 118 0 b 130 0 141 10 141 24 l 141 239 b 141 241 141 243 143 247 b 150 267 169 317 202 361 b 236 405 280 441 344 441 b 357 441 368 452 368 465 b 368 479 357 489 344 489 b 250 489 185 427 148 369 b 145 365 143 361 141 357 l 141 465 b 141 479 130 489 118 489 b 104 489 93 479 93 465 l 93 24 z"},"2":{"x_min":0,"x_max":590,"ha":590,"o":"m 53 7 b 57 2 64 0 71 0 l 75 0 l 465 0 b 478 0 489 11 489 24 b 489 38 478 49 465 49 l 134 49 l 414 302 b 464 348 489 410 489 472 b 489 526 470 581 429 625 b 384 676 322 700 261 700 b 206 700 150 680 106 641 l 72 609 b 62 601 61 585 71 575 b 79 565 95 564 105 574 l 139 605 b 174 636 217 651 261 651 b 310 651 359 631 394 592 b 425 558 441 515 441 472 b 441 422 420 374 381 338 l 54 43 b 44 33 44 18 53 7 z"},"{":{"x_min":0,"x_max":480,"ha":480,"o":"m 406 -139 b 417 -141 427 -135 427 -123 b 427 -115 421 -109 415 -107 b 270 -69 254 -31 254 68 l 254 143 b 254 232 217 265 150 287 b 213 306 254 342 254 431 l 254 506 b 254 605 270 643 415 681 b 421 683 427 689 427 697 b 427 709 417 715 406 713 b 237 679 205 615 205 512 l 205 433 b 205 355 182 306 79 306 b 63 306 55 298 55 287 b 55 276 63 268 79 268 b 182 268 205 219 205 141 l 205 62 b 205 -41 237 -105 406 -139 z"},"9":{"x_min":0,"x_max":642,"ha":642,"o":"m 66 470 b 66 341 170 239 297 239 b 367 239 429 268 471 316 b 462 266 445 218 421 176 b 378 103 314 53 217 49 b 203 48 193 37 193 23 b 193 10 204 0 218 0 l 219 0 b 334 4 416 69 464 152 b 511 235 531 338 531 431 b 531 452 530 472 529 491 b 528 493 528 494 527 496 b 514 611 417 700 297 700 b 170 700 66 597 66 470 z m 297 288 b 197 288 115 368 115 470 b 115 570 197 651 297 651 b 399 651 480 570 480 470 b 480 368 399 288 297 288 z"}," ":{"x_min":0,"x_max":300,"ha":300,"o":""},"I":{"x_min":0,"x_max":305,"ha":305,"o":"m 111 24 l 111 24 b 111 11 122 0 135 0 l 135 0 b 149 0 160 11 160 24 l 160 676 l 160 676 b 160 689 149 700 135 700 l 135 700 b 122 700 111 689 111 676 l 111 24 z"},"H":{"x_min":0,"x_max":709,"ha":709,"o":"m 513 24 b 513 11 524 0 537 0 b 551 0 562 11 562 24 l 562 676 b 562 689 551 700 537 700 b 524 700 513 689 513 676 l 513 374 l 153 374 l 153 676 b 153 689 142 700 128 700 b 115 700 104 689 104 676 l 104 24 b 104 11 115 0 128 0 b 142 0 153 11 153 24 l 153 326 l 513 326 l 513 24 z"},"4":{"x_min":0,"x_max":664,"ha":664,"o":"m 456 24 b 456 11 467 0 480 0 b 494 0 505 11 505 24 l 505 144 l 552 144 b 566 144 577 155 577 168 b 577 181 566 192 552 192 l 505 192 l 505 672 l 505 675 b 505 676 504 677 504 679 b 502 683 500 688 496 691 b 485 700 471 699 462 688 l 461 687 l 56 183 b 47 173 48 157 59 149 b 63 145 69 144 74 144 l 76 144 l 77 144 l 456 144 z m 125 192 l 456 602 l 456 192 z"},"~":{"x_min":0,"x_max":460,"ha":460,"o":"m 121 254 b 133 281 144 292 166 292 b 200 292 256 251 294 251 b 330 251 354 268 373 326 b 374 329 375 335 375 338 b 375 348 367 355 357 355 b 348 355 342 347 339 341 b 327 314 316 303 294 303 b 260 303 204 344 166 344 b 130 344 106 327 87 269 b 86 266 85 260 85 257 b 85 247 93 240 103 240 b 113 240 118 248 121 254 z"},"D":{"x_min":0,"x_max":719,"ha":719,"o":"m 259 0 b 452 0 609 156 609 349 b 609 542 452 700 259 700 l 131 700 l 128 700 b 115 700 104 689 104 676 l 104 24 b 104 11 114 1 126 0 l 130 0 z m 153 49 l 153 651 l 259 651 b 425 650 560 516 560 349 b 560 183 425 49 259 49 z"},"^":{"x_min":0,"x_max":500,"ha":500,"o":"m 249 660 l 369 503 b 377 492 389 489 405 489 b 415 489 420 495 420 500 b 420 504 419 507 415 513 l 282 689 b 273 700 266 707 254 707 l 246 707 b 234 707 227 700 218 689 l 85 513 b 81 507 80 504 80 500 b 80 495 85 489 94 489 b 109 489 121 492 129 503 z"},"0":{"x_min":0,"x_max":710,"ha":710,"o":"m 132 106 l 132 106 b 175 43 236 0 307 0 l 307 0 b 378 0 439 43 482 106 l 482 106 b 524 170 550 256 550 350 l 550 350 b 550 444 524 530 482 595 l 482 595 b 439 657 378 700 307 700 l 307 700 b 236 700 175 657 132 595 l 132 595 b 89 530 65 444 65 350 l 65 350 b 65 256 89 170 132 106 z m 173 567 l 173 567 b 209 622 257 651 307 651 l 307 651 b 307 651 307 651 307 651 l 307 651 b 357 651 404 622 441 567 l 441 567 b 477 513 501 436 501 350 l 501 350 b 501 264 477 187 441 133 l 441 133 b 404 80 357 49 307 49 l 307 49 b 257 49 209 80 173 133 l 173 133 b 137 187 114 264 114 350 l 114 350 b 114 436 137 513 173 567 z"},"F":{"x_min":0,"x_max":605,"ha":605,"o":"m 104 24 b 104 11 115 0 128 0 b 142 0 153 11 153 24 l 153 325 l 447 325 b 461 325 472 336 472 349 b 472 363 461 374 447 374 l 153 374 l 153 651 l 489 651 b 502 651 513 662 513 676 b 513 689 502 700 489 700 l 131 700 l 127 700 b 114 699 104 689 104 676 l 104 24 z"},"`":{"x_min":0,"x_max":500,"ha":500,"o":"m 286 592 b 293 592 299 596 299 601 b 299 605 297 609 295 612 l 233 705 b 225 717 217 723 205 723 b 186 723 163 710 163 700 b 163 694 168 688 174 682 l 254 605 b 266 594 273 592 286 592 z"},"k":{"x_min":0,"x_max":560,"ha":560,"o":"m 93 24 b 93 11 104 0 117 0 b 131 0 142 11 142 24 l 142 136 l 242 236 l 430 9 b 434 2 442 0 449 0 b 454 0 460 1 465 5 b 475 15 476 29 467 40 l 277 271 l 466 460 b 476 470 476 485 466 494 b 456 504 442 504 432 494 l 142 205 l 142 676 b 142 689 131 700 117 700 b 104 700 93 689 93 676 l 93 24 z"},"u":{"x_min":0,"x_max":613,"ha":613,"o":"m 83 200 l 83 200 b 83 90 171 0 281 0 l 281 0 b 393 0 482 90 482 200 l 482 467 l 482 467 b 482 481 471 491 457 491 l 457 491 b 445 491 433 481 433 467 l 433 467 l 433 200 l 433 200 b 433 116 365 49 281 48 l 281 48 b 198 49 131 116 131 200 l 131 467 l 131 467 b 131 481 120 491 107 491 l 107 491 b 94 491 83 481 83 467 l 83 200 z"},"]":{"x_min":0,"x_max":430,"ha":430,"o":"m 332 674 b 332 688 320 700 306 700 l 74 700 b 64 700 55 691 55 681 b 55 671 64 662 74 662 l 286 662 l 286 -92 l 74 -92 b 64 -92 55 -101 55 -111 b 55 -121 64 -130 74 -130 l 306 -130 b 320 -130 332 -118 332 -104 z"},"U":{"x_min":0,"x_max":814,"ha":814,"o":"m 105 283 l 105 283 b 105 127 232 0 387 0 l 387 0 b 544 0 671 127 671 283 l 671 676 l 671 676 b 671 689 660 700 646 700 l 646 700 b 633 700 622 689 622 676 l 622 676 l 622 283 l 622 283 b 622 154 517 50 387 49 l 387 49 b 259 50 154 154 154 283 l 154 676 l 154 676 b 154 689 143 700 129 700 l 129 700 b 116 700 105 689 105 676 l 105 283 z"},"o":{"x_min":0,"x_max":625,"ha":625,"o":"m 70 245 l 70 245 b 70 112 174 0 302 0 l 302 0 b 431 0 534 112 534 245 l 534 245 b 534 378 431 490 302 490 l 302 490 b 174 490 70 378 70 245 z m 118 245 l 118 245 b 118 354 202 443 302 443 l 302 443 b 402 443 486 354 486 245 l 486 245 b 486 136 402 48 302 48 l 302 48 b 202 48 118 136 118 245 z"},"N":{"x_min":0,"x_max":771,"ha":771,"o":"m 575 13 b 576 11 578 10 579 9 b 584 3 590 0 598 0 b 612 0 623 11 623 24 l 623 669 b 623 682 612 693 598 693 b 585 693 574 682 574 669 l 574 99 l 150 687 b 143 698 127 700 116 693 b 107 686 104 676 107 666 l 107 24 b 107 11 118 0 131 0 b 144 0 155 11 155 24 l 155 597 l 575 13 z"},"+":{"x_min":0,"x_max":620,"ha":620,"o":"m 281 134 b 281 115 295 100 314 100 b 333 100 348 115 348 134 l 348 317 l 531 317 b 549 317 564 331 564 350 b 564 369 549 384 531 384 l 348 384 l 348 567 b 348 585 333 600 314 600 b 295 600 281 585 281 567 l 281 384 l 98 384 b 79 384 64 369 64 350 b 64 331 79 317 98 317 l 281 317 l 281 134 z"},"G":{"x_min":0,"x_max":814,"ha":814,"o":"m 622 315 l 622 109 b 570 71 505 49 437 49 b 262 49 122 186 122 356 b 122 524 262 661 437 661 b 512 661 581 635 632 593 b 644 585 659 587 667 597 b 676 607 673 624 664 631 b 601 680 524 710 437 710 b 236 710 73 551 73 356 b 73 158 236 1 437 0 b 523 0 601 28 663 77 b 668 81 671 88 672 95 l 672 99 l 672 339 b 672 352 662 363 650 364 l 647 364 l 431 364 b 417 364 406 353 406 339 b 406 325 417 315 431 315 z"},"q":{"x_min":0,"x_max":660,"ha":660,"o":"m 483 -181 b 483 -194 494 -205 507 -205 b 522 -205 532 -194 532 -181 l 532 237 l 532 247 l 532 257 l 532 466 b 532 479 522 490 507 490 b 494 490 483 479 483 466 l 483 394 b 440 452 372 490 295 490 b 166 490 60 381 60 247 b 60 114 166 3 295 2 b 372 2 440 41 483 99 z m 109 247 b 109 356 193 441 295 441 b 399 441 483 356 483 247 b 483 139 399 52 295 51 b 193 52 109 139 109 247 z"},"d":{"x_min":0,"x_max":660,"ha":660,"o":"m 485 24 b 485 11 496 0 510 0 b 523 0 534 11 534 24 l 534 244 l 534 254 l 534 676 b 534 689 523 700 510 700 b 496 700 485 689 485 676 l 485 394 b 442 452 374 490 297 490 b 165 490 60 380 60 244 b 60 110 165 0 297 0 b 374 0 442 37 485 95 z m 297 49 b 194 49 109 136 109 244 b 109 353 194 441 297 441 b 398 441 481 357 485 252 l 485 236 b 481 132 398 49 297 49 z"},"1":{"x_min":0,"x_max":335,"ha":335,"o":"m 169 24 b 169 11 180 0 193 0 b 207 0 217 11 217 24 l 217 667 b 218 673 217 679 214 685 b 208 696 192 700 181 694 l 46 612 b 34 606 30 592 37 579 b 41 572 49 567 58 567 b 62 567 67 569 70 571 l 169 629 l 169 24 z"},"5":{"x_min":0,"x_max":605,"ha":605,"o":"m 238 0 b 298 0 360 24 406 69 b 453 115 475 177 475 237 b 475 299 453 359 406 405 b 360 452 300 474 239 474 b 197 474 156 463 120 442 l 145 650 l 450 650 b 464 650 475 660 475 675 b 475 689 464 700 450 700 l 124 700 b 118 700 112 698 108 694 b 102 690 98 684 98 676 l 64 394 b 64 392 63 390 63 389 b 63 386 63 383 64 381 b 64 380 64 379 65 378 l 65 377 b 66 374 68 371 71 369 b 80 359 96 359 106 369 b 143 406 190 424 239 424 b 287 424 335 406 371 370 b 407 334 425 286 425 237 b 425 189 407 142 370 105 b 333 68 286 50 238 50 b 190 50 143 68 106 104 b 96 114 80 114 70 104 b 60 95 60 79 70 69 b 116 23 177 0 238 0 z"}}}
